# xmcd
#
# Track frame offsets:
#	150
#	13342
#	29883
#	46127
#	62222
#	78599
#	95051
#	111903
#	127185
#	142588
#	157840
#	170319
#
# Disc length: 2448 seconds
#
# Revision: 1
# Processed by: cddbd v1.5.2PL0 Copyright (c) Steve Scherf et al.
# Submitted via: audiograbber 1.83.01
#
DISCID=a2098e0c
DTITLE=Roland Hefter - Des werd scho no
DYEAR=2018
DGENRE=
TTITLE0=So wia i wui
TTITLE1=Des is doch jedem scho passiert
TTITLE2=I brauch des ned
TTITLE3=Des hab i vergessen
TTITLE4=Des is da Neid
TTITLE5=Die Zeiten san vorbei
TTITLE6=Schlimmer gehts immer
TTITLE7=Des werd scho no
TTITLE8=Aber am Sonntag
TTITLE9=Bei so am Weda
TTITLE10=Kimm fahr mit mir auf die Wiesn
TTITLE11=Starkbierzeit
EXTD=
EXTT0=
EXTT1=
EXTT2=
EXTT3=
EXTT4=
EXTT5=
EXTT6=
EXTT7=
EXTT8=
EXTT9=
EXTT10=
EXTT11=
PLAYORDER=
